<svg xmlns="http://www.w3.org/2000/svg" viewBox="0 0 1135.49 299.89"><defs><style>.cls-1{fill:#414042;}.cls-2{fill:#6d6e71;}.cls-3{fill:#8dc63f;}.cls-4{fill:#fff;}</style></defs><g id="Layer_2" data-name="Layer 2"><g id="Layer_1-2" data-name="Layer 1"><polygon class="cls-1" points="34.55 172.53 34.55 51.24 48.05 51.42 107.03 136.72 107.03 51.42 124.34 51.42 124.34 172.53 110.5 172.53 52.02 87.93 52.02 172.53 34.55 172.53"/><polygon class="cls-1" points="141.27 172.53 141.27 51.24 154.77 51.42 213.77 136.72 213.77 51.42 231.06 51.42 231.06 172.53 217.22 172.53 158.74 87.93 158.74 172.53 141.27 172.53"/><path class="cls-1" d="M340.78,82a44.51,44.51,0,0,0-31.31-13.15,43.42,43.42,0,0,0-31,13.15,44.28,44.28,0,0,0,0,62.64,43.37,43.37,0,0,0,31,13.15A44.54,44.54,0,0,0,340.78,82m-74.9-12.46a61.2,61.2,0,0,1,87.37,0,62.27,62.27,0,0,1,0,87.56,61.2,61.2,0,0,1-87.37,0,62.24,62.24,0,0,1,0-87.56"/><polygon class="cls-1" points="459.17 51.24 477.85 51.24 429.23 172.53 416.43 172.53 367.82 51.24 386.84 51.24 422.83 141.73 459.17 51.24"/><polygon class="cls-1" points="572.09 172.87 572.09 67.5 543.62 67.5 543.62 51.24 617.89 51.24 617.89 67.5 589.58 67.5 589.58 172.87 572.09 172.87"/><path class="cls-1" d="M760.52,82a44.53,44.53,0,0,0-31.31-13.15,43.44,43.44,0,0,0-31,13.15,44.3,44.3,0,0,0,0,62.64,43.4,43.4,0,0,0,31,13.15A44.54,44.54,0,0,0,760.52,82M685.61,69.58a61.21,61.21,0,0,1,87.38,0,62.27,62.27,0,0,1,0,87.56,61.21,61.21,0,0,1-87.38,0,62.24,62.24,0,0,1,0-87.56"/><polygon class="cls-1" points="806.99 172.53 806.99 51.24 820.49 51.42 879.48 136.72 879.48 51.42 896.77 51.42 896.77 172.53 882.94 172.53 824.46 87.93 824.46 172.53 806.99 172.53"/><polygon class="cls-1" points="464.36 172.53 445.67 172.53 494.29 51.24 507.1 51.24 555.71 172.53 536.68 172.53 500.69 82.04 464.36 172.53"/><polygon class="cls-1" points="17.61 68.54 17.61 51.24 0.12 51.24 0.12 172.19 17.61 172.19 17.61 154.71 17.58 154.71 17.58 68.54 17.61 68.54"/><polygon class="cls-1" points="651.31 68.54 651.31 51.24 633.81 51.24 633.81 172.19 651.31 172.19 651.31 154.71 651.28 154.71 651.28 68.54 651.31 68.54"/><path class="cls-2" d="M20.41,218.17H0V210.8H49.67v7.37H29.17v59.72H20.41Z"/><path class="cls-2" d="M61.72,255.4c.2,11.84,7.76,16.72,16.52,16.72a31.53,31.53,0,0,0,13.34-2.49l1.5,6.27c-3.09,1.4-8.36,3-16,3-14.83,0-23.69-9.76-23.69-24.29s8.56-26,22.6-26c15.72,0,19.9,13.84,19.9,22.7a33.38,33.38,0,0,1-.29,4.08Zm25.68-6.27c.1-5.58-2.29-14.24-12.14-14.24-8.86,0-12.74,8.16-13.44,14.24Z"/><path class="cls-2" d="M141.06,276.1a32.19,32.19,0,0,1-13.84,2.79c-14.53,0-24-9.86-24-24.59s10.16-25.58,25.88-25.58a29.21,29.21,0,0,1,12.15,2.49l-2,6.77a20.28,20.28,0,0,0-10.16-2.29c-11.05,0-17,8.16-17,18.21,0,11.15,7.17,18,16.73,18a24.84,24.84,0,0,0,10.75-2.39Z"/><path class="cls-2" d="M151.31,207.22h8.76v30.06h.2a16.27,16.27,0,0,1,6.28-6.17,17.92,17.92,0,0,1,8.95-2.49c6.47,0,16.83,4,16.83,20.6v28.67h-8.76V250.22c0-7.76-2.89-14.33-11.15-14.33a12.58,12.58,0,0,0-11.75,8.76,10.52,10.52,0,0,0-.6,4.18v29.06h-8.76Z"/><path class="cls-2" d="M206.56,242.75c0-5-.1-9.05-.39-13h7.76l.5,8h.2a17.71,17.71,0,0,1,15.92-9.06c6.67,0,17,4,17,20.51v28.76h-8.76V250.12c0-7.76-2.89-14.23-11.15-14.23a12.44,12.44,0,0,0-11.75,9,12.59,12.59,0,0,0-.6,4.09v29h-8.76Z"/><path class="cls-2" d="M305.42,253.41c0,17.81-12.35,25.58-24,25.58-13,0-23.09-9.56-23.09-24.79,0-16.12,10.55-25.58,23.89-25.58C296.06,228.62,305.42,238.67,305.42,253.41Zm-38.23.49c0,10.56,6.07,18.52,14.63,18.52,8.36,0,14.64-7.86,14.64-18.72,0-8.16-4.09-18.51-14.44-18.51S267.19,244.74,267.19,253.9Z"/><path class="cls-2" d="M316.47,207.22h8.76v70.67h-8.76Z"/><path class="cls-2" d="M383.56,253.41c0,17.81-12.34,25.58-24,25.58-13,0-23.09-9.56-23.09-24.79,0-16.12,10.55-25.58,23.89-25.58C374.2,228.62,383.56,238.67,383.56,253.41Zm-38.22.49c0,10.56,6.07,18.52,14.63,18.52,8.36,0,14.63-7.86,14.63-18.72,0-8.16-4.08-18.51-14.43-18.51S345.34,244.74,345.34,253.9Z"/><path class="cls-2" d="M436.12,229.71c-.2,3.49-.39,7.37-.39,13.24v28c0,11.05-2.2,17.82-6.87,22-4.68,4.38-11.45,5.77-17.52,5.77-5.78,0-12.15-1.39-16-4l2.19-6.67a27.15,27.15,0,0,0,14.13,3.78c9,0,15.53-4.68,15.53-16.82v-5.38H427c-2.68,4.48-7.86,8.07-15.33,8.07-11.94,0-20.5-10.16-20.5-23.5,0-16.32,10.65-25.58,21.7-25.58,8.36,0,12.94,4.38,15,8.36h.2l.4-7.27Zm-9.06,19a12.77,12.77,0,0,0-.49-4c-1.6-5.07-5.88-9.25-12.25-9.25-8.36,0-14.33,7.06-14.33,18.21,0,9.46,4.78,17.33,14.23,17.33a12.81,12.81,0,0,0,12.15-9,15.21,15.21,0,0,0,.69-4.68Z"/><path class="cls-2" d="M453.45,229.71,464,258.18c1.09,3.19,2.29,7,3.08,9.86h.2c.9-2.89,1.89-6.57,3.09-10.05l9.55-28.28h9.26L476,264.06c-6.27,16.52-10.55,25-16.52,30.16a23.66,23.66,0,0,1-10.75,5.67l-2.19-7.36a23.23,23.23,0,0,0,7.66-4.28,26.55,26.55,0,0,0,7.37-9.76,6.21,6.21,0,0,0,.7-2.09,7.63,7.63,0,0,0-.6-2.29l-17.82-44.4Z"/><path class="cls-2" d="M517.36,267.34a30.65,30.65,0,0,0,15.52,4.38c8.86,0,14-4.68,14-11.44,0-6.28-3.58-9.86-12.64-13.34-10.95-3.89-17.72-9.56-17.72-19,0-10.45,8.66-18.22,21.7-18.22,6.87,0,11.85,1.6,14.83,3.29l-2.39,7.07A26.65,26.65,0,0,0,538,216.87c-9.16,0-12.64,5.48-12.64,10.06,0,6.27,4.08,9.35,13.34,12.94,11.35,4.38,17.12,9.85,17.12,19.71,0,10.35-7.66,19.31-23.49,19.31-6.47,0-13.54-1.89-17.12-4.28Z"/><path class="cls-2" d="M610.93,253.41c0,17.81-12.34,25.58-24,25.58-13,0-23.1-9.56-23.1-24.79,0-16.12,10.56-25.58,23.9-25.58C601.57,228.62,610.93,238.67,610.93,253.41Zm-38.23.49c0,10.56,6.08,18.52,14.64,18.52,8.36,0,14.63-7.86,14.63-18.72,0-8.16-4.08-18.51-14.43-18.51S572.7,244.74,572.7,253.9Z"/><path class="cls-2" d="M622,207.22h8.76v70.67H622Z"/><path class="cls-2" d="M685.79,264.75c0,5,.1,9.36.4,13.14h-7.76l-.5-7.86h-.2a18.14,18.14,0,0,1-15.93,9c-7.56,0-16.62-4.18-16.62-21.1V229.71h8.76v26.68c0,9.16,2.78,15.33,10.75,15.33a12.68,12.68,0,0,0,11.55-8,13,13,0,0,0,.79-4.48V229.71h8.76Z"/><path class="cls-2" d="M710.88,215.88v13.83h12.54v6.67H710.88v26c0,6,1.69,9.35,6.57,9.35a19.46,19.46,0,0,0,5.08-.6l.39,6.58a21.59,21.59,0,0,1-7.76,1.19c-4.08,0-7.37-1.29-9.46-3.68-2.49-2.59-3.38-6.87-3.38-12.55V236.38h-7.47v-6.67h7.47V218.17Z"/><path class="cls-2" d="M743,216.18c.1,3-2.09,5.37-5.57,5.37a5.21,5.21,0,0,1-5.28-5.37,5.34,5.34,0,0,1,5.48-5.48A5.2,5.2,0,0,1,743,216.18Zm-9.75,61.71V229.71H742v48.18Z"/><path class="cls-2" d="M800.17,253.41c0,17.81-12.34,25.58-24,25.58-13,0-23.09-9.56-23.09-24.79,0-16.12,10.55-25.58,23.89-25.58C790.81,228.62,800.17,238.67,800.17,253.41ZM762,253.9c0,10.56,6.07,18.52,14.63,18.52,8.36,0,14.63-7.86,14.63-18.72,0-8.16-4.08-18.51-14.43-18.51S762,244.74,762,253.9Z"/><path class="cls-2" d="M811.22,242.75c0-5-.1-9.05-.39-13h7.76l.5,8h.2a17.71,17.71,0,0,1,15.92-9.06c6.67,0,17,4,17,20.51v28.76h-8.76V250.12c0-7.76-2.89-14.23-11.15-14.23a12.44,12.44,0,0,0-11.75,9,12.59,12.59,0,0,0-.6,4.09v29h-8.76Z"/><path class="cls-2" d="M865.28,268.93a22.9,22.9,0,0,0,11.55,3.49c6.37,0,9.35-3.19,9.35-7.17,0-4.18-2.48-6.47-9-8.86-8.66-3.08-12.74-7.86-12.74-13.64,0-7.76,6.27-14.13,16.63-14.13a23.94,23.94,0,0,1,11.84,3L890.76,238a18.67,18.67,0,0,0-9.85-2.79c-5.18,0-8.07,3-8.07,6.57,0,4,2.89,5.77,9.16,8.16,8.37,3.19,12.65,7.37,12.65,14.54,0,8.46-6.57,14.43-18,14.43a27.36,27.36,0,0,1-13.54-3.29Z"/><path class="cls-3" d="M948.2.67A46.51,46.51,0,0,0,910,39.2l-.07,147.43a46.52,46.52,0,0,0,46,39.51H1089a46.52,46.52,0,0,0,46.5-46.52V46.51A46.51,46.51,0,0,0,1089,0"/><line class="cls-3" x1="1088.99" x2="980.58"/><path class="cls-4" d="M1066.14,66.42c-9.27,0-16.24,10.82-20.1,23.71l-17.53,82.71h-37.1l18.81-88.9a26.19,26.19,0,0,0,.77-6.44c0-5.67-2-11.33-7.73-11.33-10,0-17,11.07-20.87,24l-17.52,82.71H927.76c18.3-34.52,29.78-97.23,26.68-121.68,3.64-6,31.31-4.76,34.91,6.24,8.29-10.57,22.41-14.69,31.44-14.69,13.65,0,23.69,6.19,26.53,22.17,12.37-19.07,26.29-21.9,35.82-21.9,16.5,0,28.61,8.5,28.61,29.11,0,20.87-12.37,52.05-12.37,66.48,0,6.45,2.57,10.83,10.3,10.83,4.39,0,7-.52,8.51-1.55-2.33,18.55-14.69,26.54-28.35,26.54-19.84,0-26-14.43-26-29.12,0-17.52,11.59-49.22,11.59-65.7,0-8.51-3.09-13.15-9.27-13.15"/><path class="cls-4" d="M988.6,75.08c-3.93,2.07-6.11,12.17-7.54,17.21-.65,2.28-1.39,5.4-2.19,9.65-7.06,9.68-19.54,6.43-24.64-1.93a15.26,15.26,0,0,1-2.22-7.1c3.58-32.92-19.13-37-18.09-37.75,11.1-7.61,23-12.22,33.29-13C988.83,40.28,993,61.32,988.6,75.08"/></g></g></svg>